<svg width="523" height="388" viewBox="0 0 523 388" fill="none" xmlns="http://www.w3.org/2000/svg">
<path fill-rule="evenodd" clip-rule="evenodd" d="M109.586 296.756C105.7 295.221 105.35 289.859 109.002 287.831L167.875 255.155L167.929 291.247C167.932 293.042 168.888 294.7 170.44 295.598L313.398 377.248L109.586 296.756Z" fill="#E6E6E6"/>
<path fill-rule="evenodd" clip-rule="evenodd" d="M176.037 104.779L354.883 2.20411C358.096 0.361249 362.267 -0.516463 365.876 0.315054C370.945 1.48479 375.697 3.08183 375.686 7.52483L375.958 173.957L360.222 183.265C365.372 185.775 522.362 262.278 522.621 262.466L523 268.887C523 271.657 521.537 274.211 519.142 275.6C492.419 291.097 335.876 381.699 335.876 381.699C330.725 384.68 324.378 384.68 319.228 381.699L170.44 295.598C168.888 294.7 167.932 293.042 167.929 291.247L167.67 119.189C167.685 113.233 170.876 107.739 176.037 104.779Z" fill="#C6C6C6"/>
<path fill-rule="evenodd" clip-rule="evenodd" d="M172.94 290.683L376.114 174.618L376.532 8.55267C376.545 3.75495 371.368 0.742348 367.21 3.12636L179.853 110.583C175.773 112.923 173.253 117.265 173.24 121.971L172.94 290.683Z" fill="#666666"/>
<path fill-rule="evenodd" clip-rule="evenodd" d="M368.175 12.7681L182.17 119.659L181.783 275.999L368.175 168.874V12.7681Z" fill="#F4F4F4"/>
<path fill-rule="evenodd" clip-rule="evenodd" d="M173.057 290.67L376.124 173.421L519.732 256.52C523.881 258.922 523.88 264.916 519.732 267.315L332.782 375.481C328.711 377.837 323.695 377.837 319.623 375.481L173.057 290.67Z" fill="#F4F4F4"/>
<path fill-rule="evenodd" clip-rule="evenodd" d="M229.259 294.276C225.215 296.601 223.193 297.764 219.149 300.09C215.059 297.774 213.016 296.617 208.928 294.304C212.972 291.98 214.994 290.817 219.037 288.49C223.126 290.807 225.171 291.963 229.259 294.276Z" fill="#C6C6C6"/>
<path fill-rule="evenodd" clip-rule="evenodd" d="M244.182 285.697C240.138 288.021 238.116 289.184 234.072 291.509C229.984 289.194 227.939 288.038 223.851 285.725C227.894 283.398 229.916 282.235 233.96 279.911C238.05 282.225 240.094 283.382 244.182 285.697Z" fill="#C6C6C6"/>
<path fill-rule="evenodd" clip-rule="evenodd" d="M259.107 277.116C255.063 279.441 253.041 280.604 248.996 282.929C244.907 280.616 242.862 279.459 238.774 277.144C242.819 274.818 244.841 273.657 248.885 271.332C252.974 273.645 255.019 274.803 259.107 277.116Z" fill="#C6C6C6"/>
<path fill-rule="evenodd" clip-rule="evenodd" d="M274.032 268.537C269.986 270.862 267.964 272.025 263.92 274.349C259.832 272.036 257.787 270.878 253.699 268.563C257.743 266.239 259.765 265.076 263.81 262.751C267.898 265.064 269.943 266.221 274.032 268.537Z" fill="#C6C6C6"/>
<path fill-rule="evenodd" clip-rule="evenodd" d="M288.957 259.954C284.913 262.281 282.889 263.444 278.845 265.768C274.755 263.455 272.712 262.297 268.624 259.984C272.667 257.658 274.689 256.496 278.733 254.17C282.823 256.485 284.868 257.641 288.957 259.954Z" fill="#C6C6C6"/>
<path fill-rule="evenodd" clip-rule="evenodd" d="M303.881 251.374C299.835 253.7 297.813 254.863 293.77 257.188C289.681 254.873 287.636 253.716 283.548 251.403C287.592 249.079 289.615 247.916 293.659 245.589C297.748 247.904 299.793 249.061 303.881 251.374Z" fill="#C6C6C6"/>
<path fill-rule="evenodd" clip-rule="evenodd" d="M318.806 242.795C314.76 245.119 312.738 246.283 308.694 248.609C304.606 246.294 302.561 245.136 298.473 242.823C302.517 240.498 304.538 239.333 308.584 237.009C312.672 239.324 314.716 240.48 318.806 242.795Z" fill="#C6C6C6"/>
<path fill-rule="evenodd" clip-rule="evenodd" d="M333.73 234.214C329.685 236.539 327.663 237.702 323.619 240.027C319.531 237.713 317.486 236.557 313.397 234.242C317.441 231.916 319.463 230.754 323.509 228.428C327.597 230.743 329.642 231.901 333.73 234.214Z" fill="#C6C6C6"/>
<path fill-rule="evenodd" clip-rule="evenodd" d="M348.655 225.633C344.611 227.959 342.588 229.121 338.544 231.445C334.454 229.132 332.411 227.976 328.322 225.661C332.366 223.336 334.388 222.173 338.434 219.849C342.522 222.162 344.567 223.318 348.655 225.633Z" fill="#C6C6C6"/>
<path fill-rule="evenodd" clip-rule="evenodd" d="M363.578 217.054C359.534 219.379 357.512 220.542 353.468 222.866C349.38 220.553 347.335 219.395 343.245 217.08C347.291 214.756 349.313 213.593 353.356 211.268C357.446 213.583 359.49 214.739 363.578 217.054Z" fill="#C6C6C6"/>
<path fill-rule="evenodd" clip-rule="evenodd" d="M378.501 208.473C374.457 210.798 372.437 211.961 368.392 214.287C364.303 211.971 362.258 210.814 358.17 208.501C362.215 206.175 364.237 205.014 368.281 202.689C372.37 205.002 374.413 206.16 378.501 208.473Z" fill="#C6C6C6"/>
<path fill-rule="evenodd" clip-rule="evenodd" d="M393.426 199.894C389.382 202.219 387.359 203.38 383.315 205.706C379.227 203.392 377.183 202.235 373.093 199.92C377.137 197.596 379.161 196.434 383.205 194.108C387.291 196.423 389.338 197.579 393.426 199.894Z" fill="#C6C6C6"/>
<path fill-rule="evenodd" clip-rule="evenodd" d="M243.607 302.397C239.563 304.721 237.541 305.885 233.496 308.211C229.407 305.894 227.362 304.738 223.274 302.425C227.318 300.1 229.34 298.935 233.384 296.611C237.472 298.926 239.519 300.084 243.607 302.397Z" fill="#C6C6C6"/>
<path fill-rule="evenodd" clip-rule="evenodd" d="M258.53 293.817C254.486 296.142 252.464 297.303 248.419 299.63C244.331 297.315 242.286 296.158 238.197 293.844C242.241 291.517 244.263 290.356 248.309 288.031C252.397 290.344 254.442 291.503 258.53 293.817Z" fill="#C6C6C6"/>
<path fill-rule="evenodd" clip-rule="evenodd" d="M273.455 285.237C269.409 287.562 267.387 288.725 263.343 291.05C259.255 288.736 257.208 287.58 253.12 285.264C257.166 282.939 259.188 281.776 263.231 279.451C267.321 281.766 269.365 282.922 273.455 285.237Z" fill="#C6C6C6"/>
<path fill-rule="evenodd" clip-rule="evenodd" d="M288.38 276.658C284.334 278.982 282.312 280.145 278.268 282.47C274.178 280.155 272.133 278.997 268.045 276.684C272.089 274.359 274.111 273.196 278.156 270.872C282.245 273.185 284.29 274.341 288.38 276.658Z" fill="#C6C6C6"/>
<path fill-rule="evenodd" clip-rule="evenodd" d="M303.304 268.075C299.259 270.401 297.237 271.564 293.191 273.889C289.103 271.574 287.058 270.418 282.97 268.103C287.014 265.778 289.036 264.615 293.081 262.291C297.169 264.604 299.214 265.762 303.304 268.075Z" fill="#C6C6C6"/>
<path fill-rule="evenodd" clip-rule="evenodd" d="M318.229 259.494C314.184 261.821 312.162 262.982 308.118 265.308C304.028 262.994 301.983 261.837 297.895 259.524C301.94 257.198 303.962 256.036 308.006 253.708C312.096 256.025 314.139 257.181 318.229 259.494Z" fill="#C6C6C6"/>
<path fill-rule="evenodd" clip-rule="evenodd" d="M333.152 250.915C329.108 253.239 327.087 254.403 323.043 256.727C318.953 254.413 316.908 253.256 312.819 250.943C316.863 248.615 318.887 247.454 322.931 245.129C327.019 247.442 329.064 248.6 333.152 250.915Z" fill="#C6C6C6"/>
<path fill-rule="evenodd" clip-rule="evenodd" d="M348.078 242.334C344.033 244.659 342.011 245.822 337.967 248.147C333.877 245.834 331.832 244.675 327.744 242.361C331.788 240.036 333.811 238.873 337.855 236.548C341.943 238.861 343.988 240.02 348.078 242.334Z" fill="#C6C6C6"/>
<path fill-rule="evenodd" clip-rule="evenodd" d="M363.003 233.753C358.958 236.08 356.936 237.241 352.89 239.566C348.802 237.253 346.757 236.096 342.668 233.78C346.712 231.455 348.734 230.294 352.78 227.967C356.87 230.282 358.913 231.439 363.003 233.753Z" fill="#C6C6C6"/>
<path fill-rule="evenodd" clip-rule="evenodd" d="M377.926 225.173C373.883 227.499 371.859 228.662 367.817 230.987C363.727 228.672 361.682 227.514 357.592 225.201C361.637 222.876 363.659 221.713 367.703 219.388C371.793 221.701 373.836 222.859 377.926 225.173Z" fill="#C6C6C6"/>
<path fill-rule="evenodd" clip-rule="evenodd" d="M392.849 216.594C388.806 218.918 386.784 220.081 382.74 222.406C378.65 220.091 376.606 218.935 372.518 216.62C376.562 214.295 378.582 213.134 382.626 210.808C386.716 213.122 388.761 214.279 392.849 216.594Z" fill="#C6C6C6"/>
<path fill-rule="evenodd" clip-rule="evenodd" d="M407.772 208.014C400.993 211.911 397.602 213.862 390.822 217.758C386.732 215.445 384.687 214.289 380.599 211.974C387.38 208.076 390.77 206.127 397.551 202.229C401.639 204.543 403.684 205.7 407.772 208.014Z" fill="#C6C6C6"/>
<path fill-rule="evenodd" clip-rule="evenodd" d="M264.636 306.676C257.919 310.538 254.56 312.469 247.844 316.329C243.755 314.015 241.71 312.858 237.622 310.545C244.337 306.683 247.695 304.752 254.412 300.89C258.501 303.205 260.546 304.361 264.636 306.676Z" fill="#C6C6C6"/>
<path fill-rule="evenodd" clip-rule="evenodd" d="M272.878 301.938C268.834 304.262 266.812 305.426 262.768 307.75C258.678 305.435 256.633 304.279 252.545 301.964C256.589 299.638 258.611 298.476 262.655 296.152C266.745 298.465 268.79 299.621 272.878 301.938Z" fill="#C6C6C6"/>
<path fill-rule="evenodd" clip-rule="evenodd" d="M287.803 293.357C283.757 295.683 281.735 296.845 277.692 299.169C273.602 296.856 271.558 295.7 267.468 293.383C271.512 291.059 273.536 289.897 277.58 287.571C281.668 289.886 283.713 291.042 287.803 293.357Z" fill="#C6C6C6"/>
<path fill-rule="evenodd" clip-rule="evenodd" d="M302.728 284.777C298.682 287.103 296.66 288.266 292.615 290.591C288.526 288.276 286.481 287.118 282.393 284.805C286.437 282.48 288.459 281.317 292.504 278.992C296.593 281.305 298.638 282.462 302.728 284.777Z" fill="#C6C6C6"/>
<path fill-rule="evenodd" clip-rule="evenodd" d="M317.653 276.196C313.607 278.522 311.585 279.683 307.54 282.01C303.451 279.695 301.406 278.538 297.318 276.224C301.362 273.899 303.384 272.736 307.429 270.41C311.518 272.724 313.563 273.883 317.653 276.196Z" fill="#C6C6C6"/>
<path fill-rule="evenodd" clip-rule="evenodd" d="M332.577 267.615C328.532 269.941 326.51 271.103 322.466 273.429C318.376 271.114 316.331 269.958 312.241 267.643C316.286 265.317 318.308 264.155 322.354 261.829C326.442 264.145 328.487 265.302 332.577 267.615Z" fill="#C6C6C6"/>
<path fill-rule="evenodd" clip-rule="evenodd" d="M347.5 259.035C343.456 261.36 341.434 262.523 337.389 264.848C333.3 262.535 331.255 261.377 327.167 259.062C331.211 256.737 333.233 255.574 337.278 253.25C341.367 255.563 343.412 256.721 347.5 259.035Z" fill="#C6C6C6"/>
<path fill-rule="evenodd" clip-rule="evenodd" d="M362.426 250.454C358.381 252.779 356.359 253.942 352.315 256.267C348.225 253.954 346.18 252.797 342.092 250.481C346.136 248.156 348.158 246.993 352.203 244.668C356.291 246.982 358.336 248.14 362.426 250.454Z" fill="#C6C6C6"/>
<path fill-rule="evenodd" clip-rule="evenodd" d="M377.35 241.874C373.306 244.2 371.284 245.362 367.238 247.688C363.15 245.373 361.105 244.215 357.017 241.9C361.06 239.576 363.082 238.414 367.128 236.088C371.216 238.403 373.261 239.559 377.35 241.874Z" fill="#C6C6C6"/>
<path fill-rule="evenodd" clip-rule="evenodd" d="M392.274 233.293C388.231 235.62 386.207 236.783 382.163 239.107C378.075 236.793 376.03 235.634 371.941 233.321C375.985 230.997 378.009 229.834 382.053 227.507C386.141 229.822 388.184 230.98 392.274 233.293Z" fill="#C6C6C6"/>
<path fill-rule="evenodd" clip-rule="evenodd" d="M407.198 224.714C403.154 227.039 401.132 228.2 397.088 230.528C392.998 228.212 390.955 227.055 386.866 224.741C390.91 222.416 392.93 221.253 396.974 218.928C401.064 221.243 403.109 222.399 407.198 224.714Z" fill="#C6C6C6"/>
<path fill-rule="evenodd" clip-rule="evenodd" d="M422.121 216.135C418.077 218.46 416.055 219.621 412.011 221.946C407.923 219.633 405.878 218.476 401.788 216.161C405.831 213.835 407.855 212.674 411.899 210.349C415.987 212.662 418.032 213.82 422.121 216.135Z" fill="#C6C6C6"/>
<path fill-rule="evenodd" clip-rule="evenodd" d="M272.303 318.638C268.259 320.962 266.237 322.125 262.192 324.45C258.104 322.135 256.059 320.979 251.97 318.664C256.014 316.339 258.036 315.176 262.08 312.852C266.168 315.165 268.213 316.323 272.303 318.638Z" fill="#C6C6C6"/>
<path fill-rule="evenodd" clip-rule="evenodd" d="M287.226 310.058C283.182 312.383 281.16 313.546 277.116 315.871C273.026 313.556 270.981 312.4 266.893 310.085C270.937 307.76 272.959 306.597 277.003 304.272C281.093 306.586 283.136 307.744 287.226 310.058Z" fill="#C6C6C6"/>
<path fill-rule="evenodd" clip-rule="evenodd" d="M302.149 301.477C298.106 303.804 296.084 304.965 292.04 307.29C287.95 304.977 285.906 303.818 281.816 301.504C285.862 299.179 287.884 298.018 291.928 295.691C296.016 298.006 298.061 299.163 302.149 301.477Z" fill="#C6C6C6"/>
<path fill-rule="evenodd" clip-rule="evenodd" d="M317.075 292.897C313.03 295.221 311.008 296.386 306.962 298.711C302.874 296.396 300.829 295.238 296.741 292.925C300.785 290.6 302.807 289.437 306.852 287.111C310.94 289.426 312.985 290.584 317.075 292.897Z" fill="#C6C6C6"/>
<path fill-rule="evenodd" clip-rule="evenodd" d="M331.999 284.316C327.955 286.643 325.933 287.804 321.887 290.13C317.799 287.816 315.754 286.659 311.666 284.344C315.709 282.02 317.733 280.857 321.777 278.53C325.865 280.847 327.91 282.003 331.999 284.316Z" fill="#C6C6C6"/>
<path fill-rule="evenodd" clip-rule="evenodd" d="M346.923 275.735C342.879 278.061 340.858 279.223 336.812 281.549C332.724 279.234 330.679 278.078 326.59 275.765C330.634 273.437 332.658 272.275 336.702 269.951C340.79 272.264 342.835 273.422 346.923 275.735Z" fill="#C6C6C6"/>
<path fill-rule="evenodd" clip-rule="evenodd" d="M361.848 267.156C357.804 269.481 355.782 270.644 351.737 272.968C347.648 270.655 345.603 269.497 341.515 267.182C345.559 264.858 347.581 263.695 351.626 261.37C355.715 263.683 357.76 264.841 361.848 267.156Z" fill="#C6C6C6"/>
<path fill-rule="evenodd" clip-rule="evenodd" d="M376.775 258.575C372.731 260.9 370.707 262.063 366.662 264.387C362.573 262.074 360.528 260.916 356.44 258.601C360.484 256.277 362.506 255.114 366.551 252.789C370.64 255.104 372.685 256.26 376.775 258.575Z" fill="#C6C6C6"/>
<path fill-rule="evenodd" clip-rule="evenodd" d="M391.698 249.994C387.654 252.321 385.632 253.482 381.588 255.808C377.498 253.492 375.453 252.336 371.365 250.023C375.409 247.696 377.431 246.535 381.476 244.208C385.566 246.523 387.609 247.68 391.698 249.994Z" fill="#C6C6C6"/>
<path fill-rule="evenodd" clip-rule="evenodd" d="M406.622 241.414C402.578 243.739 400.555 244.902 396.511 247.228C392.422 244.913 390.377 243.755 386.289 241.442C390.333 239.117 392.355 237.954 396.4 235.628C400.489 237.944 402.532 239.101 406.622 241.414Z" fill="#C6C6C6"/>
<path fill-rule="evenodd" clip-rule="evenodd" d="M427.993 229.128C421.371 232.937 418.058 234.839 411.436 238.647C407.346 236.333 405.302 235.176 401.214 232.863C407.835 229.054 411.147 227.15 417.772 223.342C421.86 225.657 423.903 226.815 427.993 229.128Z" fill="#C6C6C6"/>
<path fill-rule="evenodd" clip-rule="evenodd" d="M436.468 224.255C432.424 226.58 430.404 227.741 426.357 230.066C422.27 227.753 420.225 226.596 416.135 224.28C420.179 221.955 422.203 220.794 426.247 218.469C430.337 220.782 432.38 221.939 436.468 224.255Z" fill="#C6C6C6"/>
<path fill-rule="evenodd" clip-rule="evenodd" d="M288.633 327.88C284.589 330.206 282.568 331.368 278.524 333.692C274.435 331.378 272.39 330.221 268.3 327.908C272.346 325.583 274.368 324.42 278.412 322.096C282.5 324.409 284.545 325.565 288.633 327.88Z" fill="#C6C6C6"/>
<path fill-rule="evenodd" clip-rule="evenodd" d="M303.556 319.301C299.513 321.625 297.491 322.787 293.447 325.113C289.357 322.798 287.313 321.642 283.225 319.329C287.269 317.002 289.291 315.841 293.335 313.515C297.423 315.829 299.468 316.986 303.556 319.301Z" fill="#C6C6C6"/>
<path fill-rule="evenodd" clip-rule="evenodd" d="M318.481 310.72C314.437 313.045 312.414 314.208 308.37 316.532C304.281 314.219 302.236 313.063 298.148 310.748C302.192 308.422 304.214 307.26 308.258 304.934C312.348 307.249 314.393 308.407 318.481 310.72Z" fill="#C6C6C6"/>
<path fill-rule="evenodd" clip-rule="evenodd" d="M408.028 259.237C379.784 275.476 351.539 291.714 323.295 307.953C319.206 305.638 317.161 304.482 313.071 302.167C341.317 285.929 369.562 269.69 397.806 253.451C401.896 255.765 403.941 256.924 408.028 259.237Z" fill="#C6C6C6"/>
<path fill-rule="evenodd" clip-rule="evenodd" d="M422.953 250.658C418.909 252.983 416.885 254.146 412.841 256.47C408.753 254.156 406.71 252.999 402.62 250.684C406.663 248.36 408.687 247.197 412.731 244.872C416.819 247.185 418.864 248.343 422.953 250.658Z" fill="#C6C6C6"/>
<path fill-rule="evenodd" clip-rule="evenodd" d="M437.877 242.077C433.834 244.403 431.81 245.565 427.766 247.889C423.676 245.576 421.633 244.418 417.544 242.105C421.588 239.779 423.61 238.617 427.656 236.292C431.744 238.606 433.787 239.762 437.877 242.077Z" fill="#C6C6C6"/>
<path fill-rule="evenodd" clip-rule="evenodd" d="M452.799 233.497C448.755 235.823 446.733 236.986 442.689 239.311C438.601 236.996 436.556 235.839 432.467 233.525C436.513 231.2 438.533 230.038 442.577 227.714C446.667 230.027 448.71 231.183 452.799 233.497Z" fill="#C6C6C6"/>
<path fill-rule="evenodd" clip-rule="evenodd" d="M338.791 312.119L408.468 271.843L448.284 296.401L378.633 336.691L338.791 312.119Z" fill="#C6C6C6"/>
<path fill-rule="evenodd" clip-rule="evenodd" d="M172.94 290.683L173.24 121.971C173.253 117.266 175.773 112.923 179.853 110.584L367.21 3.12679C367.256 3.1004 367.303 3.074 367.349 3.04925C368.301 2.5345 369.301 2.30518 370.279 2.30518C370.445 2.30518 370.61 2.31178 370.775 2.32497C368.858 5.27818 365.592 10.2161 361.238 16.7528L182.17 119.66L181.782 276L189.686 271.458C185.564 277.557 181.983 282.856 179.052 287.192L172.94 290.683Z" fill="#999999"/>
<path fill-rule="evenodd" clip-rule="evenodd" d="M182.092 118.79L361.238 16.7524L190.165 270.41L182.092 275.524V118.79Z" fill="white"/>
<path fill-rule="evenodd" clip-rule="evenodd" d="M328.216 118.877C328.216 144.944 306.98 176.312 280.784 188.939C279.893 189.369 279.008 189.771 278.129 190.146L297.425 147.589C300.586 142.313 302.49 136.558 302.49 131.278C302.49 123.5 298.358 118.673 292.159 117.859L324.477 102.281C326.884 106.774 328.216 112.35 328.216 118.877ZM290.569 156.31L274.604 191.521C251.328 199.727 233.352 188.588 233.352 164.605C233.352 155.14 236.151 144.977 240.971 135.265L260.906 160.014C264.267 165.995 271.903 167.621 280.784 163.341C284.304 161.644 287.629 159.207 290.569 156.31ZM259.093 151.363L243.011 131.397C251.675 115.89 265.371 101.972 280.784 94.5429C299.158 85.6861 315.092 88.4014 322.969 99.8074L279.98 120.529V120.544C268.642 126.42 259.523 139.879 259.093 151.363ZM280.784 158.541C290.108 154.046 297.666 142.881 297.666 133.603C297.666 124.325 290.108 120.447 280.784 124.942C271.46 129.436 263.901 140.601 263.901 149.879C263.901 159.157 271.46 163.035 280.784 158.541Z" fill="#56AFEF"/>
<mask id="mask0" mask-type="alpha" maskUnits="userSpaceOnUse" x="233" y="89" width="96" height="106">
<path fill-rule="evenodd" clip-rule="evenodd" d="M328.216 118.877C328.216 144.944 306.98 176.312 280.784 188.939C279.893 189.369 279.008 189.771 278.129 190.146L297.425 147.589C300.586 142.313 302.49 136.558 302.49 131.278C302.49 123.5 298.358 118.673 292.159 117.859L324.477 102.281C326.884 106.774 328.216 112.35 328.216 118.877ZM290.569 156.31L274.604 191.521C251.328 199.727 233.352 188.588 233.352 164.605C233.352 155.14 236.151 144.977 240.971 135.265L260.906 160.014C264.267 165.995 271.903 167.621 280.784 163.341C284.304 161.644 287.629 159.207 290.569 156.31ZM259.093 151.363L243.011 131.397C251.675 115.89 265.371 101.972 280.784 94.5429C299.158 85.6861 315.092 88.4014 322.969 99.8074L279.98 120.529V120.544C268.642 126.42 259.523 139.879 259.093 151.363ZM280.784 158.541C290.108 154.046 297.666 142.881 297.666 133.603C297.666 124.325 290.108 120.447 280.784 124.942C271.46 129.436 263.901 140.601 263.901 149.879C263.901 159.157 271.46 163.035 280.784 158.541Z" fill="white"/>
</mask>
<g mask="url(#mask0)">
<path fill-rule="evenodd" clip-rule="evenodd" d="M240.498 127.716L259.491 154.999L261.982 143.182L268.952 131.001L281.01 122.013L293.262 115.41L338.253 93.1059L291.574 83.1216L259.423 104.446L240.498 127.716Z" fill="#DF412C"/>
<path fill-rule="evenodd" clip-rule="evenodd" d="M287.905 117.858L295.185 121.787L299.869 126.968V133.217L296.368 144.516L275.871 192.823L286.733 188.18L310.319 168.893L326.947 140.378L332.517 117.093L330.127 102.099L327.131 99.2695L287.905 117.858Z" fill="#FAD843"/>
<path fill-rule="evenodd" clip-rule="evenodd" d="M240.727 132.152L248.892 141.883L260.742 154.111L266.713 161.138L271.892 162.515L278.575 161.18L287.647 156.6L292.849 152.002L274.327 194.615L241.773 197.727L228.234 174.841L229.728 152.024L240.727 132.152Z" fill="#58BA5A"/>
</g>
<path fill-rule="evenodd" clip-rule="evenodd" d="M50.0227 388C22.3962 388 0 378.799 0 367.451C0 356.105 22.3962 346.904 50.0227 346.904C64.598 346.904 77.7167 349.465 86.8591 353.551L66.2706 364.901L94.1871 377.109C85.7715 383.588 69.1511 388 50.0227 388Z" fill="#E6E6E6"/>
<path fill-rule="evenodd" clip-rule="evenodd" d="M94.187 377.11L66.2705 364.901L86.859 353.552C95.0456 357.209 100.045 362.091 100.045 367.452C100.045 370.943 97.926 374.231 94.187 377.11Z" fill="#E6E6E6"/>
<path fill-rule="evenodd" clip-rule="evenodd" d="M76.8102 300.379L36.0156 314.097V365.493C36.0156 375.898 49.8445 384.331 66.9032 384.331C83.9603 384.331 97.7892 375.898 97.7892 365.493V314.097L76.8102 300.379Z" fill="#F4F4F4"/>
<path fill-rule="evenodd" clip-rule="evenodd" d="M97.7892 314.098C97.7892 324.501 83.962 332.935 66.9032 332.935C49.8445 332.935 36.0156 324.501 36.0156 314.098C36.0156 303.694 49.8445 295.26 66.9032 295.26C83.962 295.26 97.7892 303.694 97.7892 314.098Z" fill="#C6C6C6"/>
<path fill-rule="evenodd" clip-rule="evenodd" d="M40.6085 323.98C46.0481 329.353 55.7886 332.935 66.9035 332.935C78.0184 332.935 87.7573 329.353 93.1985 323.98C93.5742 322.887 93.7736 321.757 93.7736 320.597C93.7736 311.546 81.7442 304.208 66.9035 304.208C52.0628 304.208 40.0317 311.546 40.0317 320.597C40.0317 321.757 40.2328 322.887 40.6085 323.98Z" fill="#634646"/>
<path fill-rule="evenodd" clip-rule="evenodd" d="M66.9032 295.26C49.8445 295.26 36.0156 303.694 36.0156 314.098C36.0156 324.501 49.8445 332.935 66.9032 332.935C83.962 332.935 97.7892 324.501 97.7892 314.098C97.7892 303.694 83.962 295.26 66.9032 295.26ZM66.9041 297.426C82.4732 297.426 95.6265 305.06 95.6265 314.097C95.6265 323.133 82.4732 330.769 66.9041 330.769C51.3351 330.769 38.1802 323.133 38.1802 314.097C38.1802 305.06 51.3351 297.426 66.9041 297.426Z" fill="#999999"/>
<path fill-rule="evenodd" clip-rule="evenodd" d="M93.1555 227.305C90.5716 232.807 90.5354 239.118 90.5502 245.195C90.565 252.026 90.5815 258.856 90.5963 265.686C90.6145 273.464 90.6161 281.36 88.5019 288.845C86.386 296.329 81.8363 303.478 74.8773 306.937C71.43 308.65 67.0978 309.315 63.8383 307.267C62.3931 306.358 61.289 304.999 60.3712 303.56C52.529 291.254 59.7829 274.718 65.4202 262.903C71.9507 249.219 81.4391 236.933 93.1555 227.305Z" fill="#0C7967"/>
<path fill-rule="evenodd" clip-rule="evenodd" d="M34.5161 283.473C32.5798 257.958 33.8866 231.963 27.6362 207.152C44.6653 227.89 52.9639 255.591 50.1494 282.288C55.7933 264.653 61.4949 246.654 61.3928 228.136C61.3417 219.284 66.7813 198.393 66.7813 198.393C66.7813 198.393 69.9831 218.38 72.9278 228.096C74.935 234.727 75.3436 241.721 75.7375 248.638C76.3126 258.732 76.8893 268.824 77.4644 278.916C85.8488 253.542 108.303 218.567 108.303 218.567C108.303 218.567 100.037 285.247 95.6552 300.501C90.682 317.808 74.5049 329.574 55.9729 325.483C39.1153 321.759 35.5806 297.493 34.5161 283.473Z" fill="#0D9F86"/>
<path fill-rule="evenodd" clip-rule="evenodd" d="M47.6745 308.62C44.148 298.921 47.424 288.263 49.6255 278.179C52.2489 266.158 53.2888 253.582 50.6143 241.574C59.4814 260.32 67.2874 279.57 73.9794 299.201C75.7096 304.278 77.374 309.797 75.7294 314.901C74.1788 319.712 65.4912 328.214 59.7286 326.792C55.197 325.671 49.2202 312.875 47.6745 308.62Z" fill="#1DBDA6"/>
<path fill-rule="evenodd" clip-rule="evenodd" d="M306.697 318.7L328.832 331.079C330.083 331.778 332.181 331.918 334.664 331.469L378.635 323.508C381.119 323.058 383.785 322.055 386.047 320.72L426.089 297.084C428.351 295.749 430.024 294.19 430.739 292.751L443.405 267.281C444.121 265.842 443.82 264.641 442.57 263.942L420.438 251.563C419.187 250.863 417.089 250.723 414.605 251.173L370.635 259.134C368.151 259.583 365.485 260.586 363.223 261.922L323.178 285.558C320.916 286.893 319.243 288.452 318.527 289.891L305.862 315.361C305.146 316.8 305.447 318.001 306.697 318.7Z" fill="#333333" fill-opacity="0.2"/>
<path fill-rule="evenodd" clip-rule="evenodd" d="M332.33 130.259L299.512 182.2C297.658 185.134 296.616 188.25 296.616 190.861V237.086C296.616 239.698 297.658 241.591 299.512 242.349C299.512 242.349 315.301 251.772 320.187 253.771C326.24 256.247 332.33 255.773 332.33 255.773C334.184 256.532 336.699 256.093 339.321 254.555L385.74 227.317C388.363 225.779 390.878 223.266 392.732 220.331L425.55 168.394C427.404 165.459 428.446 162.343 428.446 159.732L441.135 129.418C441.135 128.655 446.668 120.705 446.495 120.075C446.078 118.549 426.862 108.781 425.55 108.244L392.732 94.8169C390.878 94.0583 388.363 94.4965 385.74 96.0353L339.322 123.273C336.699 124.811 334.184 127.324 332.33 130.259Z" fill="#C10000"/>
<path fill-rule="evenodd" clip-rule="evenodd" d="M352.104 141.395L319.286 193.336C317.432 196.271 316.391 199.386 316.391 201.997V248.223C316.391 250.834 317.432 252.727 319.287 253.485L352.104 266.91C353.959 267.668 356.474 267.23 359.096 265.691L405.515 238.453C408.137 236.915 410.652 234.402 412.506 231.467L445.324 179.53C447.178 176.595 448.22 173.48 448.22 170.868V124.643C448.22 122.032 447.178 120.139 445.324 119.38L412.506 105.953C410.652 105.194 408.137 105.633 405.515 107.172L359.096 134.409C356.474 135.948 353.959 138.461 352.104 141.395Z" fill="#E40D0D"/>
<path fill-rule="evenodd" clip-rule="evenodd" d="M383.275 232.888C405.853 220.347 411.21 197.848 411.21 197.848L424.168 155.551C424.168 155.551 425.338 151.258 425.124 151.337C413.057 155.914 410.491 165.355 410.491 165.355C410.491 165.355 405.853 179.287 405.134 179.686C404.414 180.086 404.328 179.294 404.328 179.294V138.497C404.328 138.497 404.554 133.109 398.821 136.293C393.088 139.478 393.378 144.59 393.378 144.59L393.389 174.723C393.389 174.723 393.464 175.896 392.39 176.493C391.435 177.023 391.488 175.819 391.488 175.819V139.506C391.488 139.506 391.843 133.379 386.045 136.599C380.248 139.819 380.559 145.618 380.559 145.618L380.506 181.475C380.506 181.475 380.581 182.536 379.625 183.067C378.734 183.562 378.766 182.451 378.766 182.451V152.413C378.766 152.413 379.089 146.121 373.184 149.401C367.387 152.621 367.698 158.672 367.698 158.672L367.644 190.421C367.644 190.421 367.752 191.282 366.839 191.789C365.873 192.326 365.894 191.393 365.894 191.393L365.851 172.238C365.851 172.238 365.905 166.905 361.031 169.612C355.846 172.492 355.942 177.742 355.942 177.742V219.136C355.974 219.108 354.632 248.799 383.275 232.888Z" fill="white"/>
</svg>
